# Rhino

mtllib capa2.mtl
usemtl 2
v -900 250 750
v -900 750 750
v -900 250 -750
v -900 750 -750
v -900 250 0
v -900 250 750
v -900 750 750
v 900 250 750
v 900 750 750
v 0 250 750
v 900 250 750
v 900 750 750
v 900 250 -750
v 900 750 -750
v 900 250 0
v -900 250 -750
v -900 750 -750
v 900 250 -750
v 900 750 -750
v 0 250 -750
v -900 250 750
v -900 250 -750
v 900 250 750
v 900 250 -750
v -900 250 0
v 0 250 750
v 900 250 0
v 0 250 -750
vt 0.45454546809196472 0.15151515603065491
vt 0.45454546809196472 0.30156546831130981
vt 0.90909093618392944 0.15151515603065491
vt 0.90909093618392944 0.30156546831130981
vt 0.68181818723678589 0.15151515603065491
vt 0.45454546809196472 0.45454546809196472
vt 0.45454546809196472 0.60459578037261963
vt 0.99853515625 0.45454546809196472
vt 0.99853515625 0.60459578037261963
vt 0.72654032707214355 0.45454546809196472
vt 0.45454546809196472 0
vt 0.45454546809196472 0.15005031228065491
vt 0.90909093618392944 0
vt 0.90909093618392944 0.15005031228065491
vt 0.68181818723678589 0
vt 0.45454546809196472 0.30303031206130981
vt 0.45454546809196472 0.45308062434196472
vt 0.99853515625 0.30303031206130981
vt 0.99853515625 0.45308062434196472
vt 0.72654032707214355 0.30303031206130981
vt 0.45308062434196472 0
vt 0 0
vt 0.45308062434196472 0.54545456171035767
vt 0 0.54545456171035767
vt 0.22654031217098236 0
vt 0.45308062434196472 0.27272728085517883
vt 0.22654031217098236 0.54545456171035767
vt 0 0.27272728085517883
vn 1 0 0
vn 1 0 0
vn 1 0 0
vn 1 0 0
vn 1 0 0
vn 0 0 -1
vn 0 0 -1
vn 0 0 -1
vn 0 0 -1
vn 0 0 -1
vn -1 0 0
vn -1 0 0
vn -1 0 0
vn -1 0 0
vn -1 0 0
vn 0 0 1
vn 0 0 1
vn 0 0 1
vn 0 0 1
vn 0 0 1
vn 0 1 0
vn 0 1 0
vn 0 1 0
vn 0 1 0
vn 0 1 0
vn 0 1 0
vn 0 1 0
vn 0 1 0
f 2/2/2 1/1/1 5/5/5 3/3/3 4/4/4
f 10/10/10 6/6/6 7/7/7 9/9/9 8/8/8
f 15/15/15 11/11/11 12/12/12 14/14/14 13/13/13
f 17/17/17 16/16/16 20/20/20 18/18/18 19/19/19
f 25/25/25 21/21/21 26/26/26 23/23/23 27/27/27 24/24/24 28/28/28 22/22/22
